<?xml version="1.0" encoding="UTF-8" standalone="no"?>
<!-- Generator: Adobe Illustrator 16.0.0, SVG Export Plug-In . SVG Version: 6.00 Build 0)  -->

<svg
   xmlns:dc="http://purl.org/dc/elements/1.1/"
   xmlns:cc="http://creativecommons.org/ns#"
   xmlns:rdf="http://www.w3.org/1999/02/22-rdf-syntax-ns#"
   xmlns:svg="http://www.w3.org/2000/svg"
   xmlns="http://www.w3.org/2000/svg"
   xmlns:sodipodi="http://sodipodi.sourceforge.net/DTD/sodipodi-0.dtd"
   xmlns:inkscape="http://www.inkscape.org/namespaces/inkscape"
   version="1.1"
   id="Capa_1"
   x="0px"
   y="0px"
   width="861.14301"
   height="809.86102"
   viewBox="0 0 861.143 809.86102"
   xml:space="preserve"
   sodipodi:docname="counterclockwise.svg"
   inkscape:version="0.92.4 (5da689c313, 2019-01-14)"><metadata
   id="metadata41"><rdf:RDF><cc:Work
       rdf:about=""><dc:format>image/svg+xml</dc:format><dc:type
         rdf:resource="http://purl.org/dc/dcmitype/StillImage" /><dc:title></dc:title></cc:Work></rdf:RDF></metadata><defs
   id="defs39" /><sodipodi:namedview
   pagecolor="#ffffff"
   bordercolor="#666666"
   borderopacity="1"
   objecttolerance="10"
   gridtolerance="10"
   guidetolerance="10"
   inkscape:pageopacity="0"
   inkscape:pageshadow="2"
   inkscape:window-width="2560"
   inkscape:window-height="1017"
   id="namedview37"
   showgrid="false"
   inkscape:zoom="0.27405437"
   inkscape:cx="-826.47835"
   inkscape:cy="404.9305"
   inkscape:window-x="-8"
   inkscape:window-y="-8"
   inkscape:window-maximized="1"
   inkscape:current-layer="Capa_1"
   fit-margin-top="0"
   fit-margin-left="0"
   fit-margin-right="0"
   fit-margin-bottom="0" />
<g
   id="g4"
   transform="matrix(-1,0,0,1,861.143,-25.641)">
	<path
   d="m 808.643,92.067 c -28.996,0 -52.5,23.505 -52.5,52.5 v 84.329 C 724.867,174.457 681.32,127.94 628.486,92.9 562.14,48.899 484.836,25.641 404.93,25.641 350.286,25.641 297.251,36.354 247.296,57.484 199.07,77.881 155.772,107.071 118.6,144.242 81.43,181.413 52.24,224.713 31.842,272.938 10.714,322.894 0,375.93 0,430.571 0,485.214 10.714,538.25 31.843,588.205 52.24,636.43 81.431,679.729 118.602,716.9 c 37.171,37.171 80.471,66.361 128.695,86.759 49.955,21.13 102.99,31.843 157.634,31.843 46.663,0 92.43,-7.883 136.03,-23.431 42.135,-15.025 81.295,-36.847 116.393,-64.858 34.752,-27.735 64.539,-60.747 88.535,-98.119 24.443,-38.072 42.191,-79.621 52.746,-123.493 6.783,-28.189 -10.568,-56.542 -38.76,-63.325 -28.193,-6.783 -56.543,10.571 -63.326,38.762 -15.469,64.29 -52.649,122.571 -104.694,164.107 -26,20.751 -54.988,36.909 -86.16,48.025 -32.25,11.5 -66.152,17.331 -100.764,17.331 -80.114,0 -155.435,-31.198 -212.083,-87.849 C 136.199,586.003 105,510.684 105,430.569 c 0,-80.113 31.198,-155.434 87.848,-212.083 56.65,-56.649 131.969,-87.848 212.083,-87.848 59.198,0 116.434,17.208 165.522,49.763 42.299,28.054 76.562,66.007 100.006,110.546 h -58.025 c -28.996,0 -52.5,23.505 -52.5,52.5 0,28.994 23.504,52.5 52.5,52.5 h 196.209 c 28.996,0 52.5,-23.506 52.5,-52.5 v -198.88 c 0,-28.995 -23.506,-52.5 -52.5,-52.5 z"
   id="path2"
   inkscape:connector-curvature="0" />
</g>
<g
   id="g6"
   transform="matrix(-1,0,0,1,4.6289063e-6,835.50201)">
</g>
<g
   id="g8"
   transform="matrix(-1,0,0,1,4.6289063e-6,835.50201)">
</g>
<g
   id="g10"
   transform="matrix(-1,0,0,1,4.6289063e-6,835.50201)">
</g>
<g
   id="g12"
   transform="matrix(-1,0,0,1,4.6289063e-6,835.50201)">
</g>
<g
   id="g14"
   transform="matrix(-1,0,0,1,4.6289063e-6,835.50201)">
</g>
<g
   id="g16"
   transform="matrix(-1,0,0,1,4.6289063e-6,835.50201)">
</g>
<g
   id="g18"
   transform="matrix(-1,0,0,1,4.6289063e-6,835.50201)">
</g>
<g
   id="g20"
   transform="matrix(-1,0,0,1,4.6289063e-6,835.50201)">
</g>
<g
   id="g22"
   transform="matrix(-1,0,0,1,4.6289063e-6,835.50201)">
</g>
<g
   id="g24"
   transform="matrix(-1,0,0,1,4.6289063e-6,835.50201)">
</g>
<g
   id="g26"
   transform="matrix(-1,0,0,1,4.6289063e-6,835.50201)">
</g>
<g
   id="g28"
   transform="matrix(-1,0,0,1,4.6289063e-6,835.50201)">
</g>
<g
   id="g30"
   transform="matrix(-1,0,0,1,4.6289063e-6,835.50201)">
</g>
<g
   id="g32"
   transform="matrix(-1,0,0,1,4.6289063e-6,835.50201)">
</g>
<g
   id="g34"
   transform="matrix(-1,0,0,1,4.6289063e-6,835.50201)">
</g>
</svg>